<svg width="52" height="52" viewBox="0 0 52 52" fill="none" xmlns="http://www.w3.org/2000/svg">
<g opacity="0.6">
<path d="M9.9019 6.02065C-1.09025 14.8687 -2.82832 30.9519 6.01975 41.9441C10.7077 47.768 17.4267 50.9942 24.3434 51.4244L24.8883 51.4525C27.8778 51.5749 30.8953 51.1753 33.7931 50.2378C30.5624 48.7864 27.5904 46.641 25.1148 43.8273C21.6234 43.6683 18.1899 42.4942 15.2922 40.3567C15.1789 40.2725 15.0915 40.1583 15.0374 40.0288C14.2767 38.1698 13.9916 36.149 14.2086 34.1521L14.255 33.7231C14.2992 33.3139 14.3797 32.9075 14.4933 32.5109C14.7513 31.6176 15.1784 30.7955 15.7371 30.0861C15.8357 30.3268 15.9433 30.5649 16.0598 30.8001C16.1286 30.9388 16.2005 31.0765 16.2755 31.213C16.3587 31.3644 16.4459 31.5143 16.5368 31.6628C16.6885 31.9101 16.8509 32.1532 17.0243 32.3915C17.0283 32.397 17.0323 32.4025 17.0363 32.408C17.0987 32.4933 17.1625 32.5781 17.2276 32.6621C17.2599 32.7037 17.2925 32.7452 17.3254 32.7864L17.3533 32.8212C18.1562 33.8185 19.0979 34.6395 20.1276 35.2774C17.9405 28.943 18.3514 21.9934 21.1917 15.99C20.4339 16.3515 19.7058 16.806 19.0234 17.3553C16.9571 19.0185 15.6493 21.2761 15.1503 23.6867C12.3766 25.2748 10.2852 27.8944 9.37805 31.0344C9.27025 31.4013 9.18214 31.7729 9.11012 32.1474C6.50782 25.1201 8.52565 16.9225 14.6845 11.965C15.1198 11.6145 15.5653 11.2878 16.0207 10.985C16.0572 10.9624 16.0957 10.9451 16.1361 10.9331C18.4983 10.2798 20.9817 10.1986 23.3815 10.6927L23.964 10.8137L24.3485 10.9475C25.4855 9.53258 26.7917 8.2178 28.2638 7.03279C30.7653 5.01926 33.5304 3.55395 36.4139 2.62116C33.8528 1.47053 31.1291 0.756005 28.3614 0.490391L26.2232 0.374802C20.4964 0.304213 14.7118 2.14896 9.9019 6.02065Z" fill="#723234"/>
<path d="M33.83 38.8822C35.509 39.0977 37.1858 38.9369 38.7513 38.4398C38.624 38.5901 37.7256 39.4294 37.1604 39.8844C36.2384 40.6265 35.2654 41.2625 34.2561 41.7939C36.9207 43.5939 39.9904 44.6149 43.1201 44.8197C45.1572 42.9691 46.8311 40.8538 48.1313 38.5687C47.6453 38.3012 47.1788 37.9985 46.7355 37.6629C42.7638 38.5663 38.4421 37.221 35.7152 33.8334C35.6651 33.7711 35.6164 33.7092 35.5679 33.6462C35.2166 33.6622 34.8617 33.6481 34.5065 33.6023C34.3036 33.5766 34.1032 33.5398 33.9049 33.4944C34.2177 33.1653 34.5067 32.8204 34.7716 32.4622C34.5136 32.0192 34.2896 31.5634 34.099 31.0983C33.5403 31.8077 33.1133 32.6297 32.8552 33.523C32.7417 33.9196 32.6612 34.3261 32.6169 34.7352L32.5706 35.1643C32.4427 36.3406 32.4891 37.5252 32.7043 38.6801C33.0743 38.7658 33.4499 38.8334 33.83 38.8822Z" fill="#723234"/>
<path d="M40.9844 30.1532L40.6609 30.6596L39.9706 31.4771C38.8599 32.7936 37.2575 33.5692 35.5679 33.6462C35.6164 33.7092 35.6651 33.7711 35.7152 33.8334C38.4421 37.221 42.7638 38.5663 46.7355 37.6629C47.1788 37.9985 47.6453 38.3012 48.1313 38.5687C53.1684 29.7166 52.599 18.3178 45.8253 9.90279C43.2131 6.65754 39.9702 4.21891 36.4139 2.62116C33.5304 3.55395 30.7653 5.01926 28.2638 7.03279C26.7917 8.2178 25.4855 9.53258 24.3485 10.9475L24.9734 11.1651C26.8766 11.8288 28.3285 13.3864 28.8625 15.3231C26.3497 14.6294 23.6184 14.8325 21.1917 15.99C18.3514 21.9934 17.9405 28.943 20.1276 35.2774C22.5952 36.8062 25.5715 37.2881 28.3736 36.6508C29.6536 37.62 31.1281 38.3147 32.7043 38.6801C32.4891 37.5252 32.4427 36.3406 32.5706 35.1643L32.6169 34.7352C32.6612 34.3261 32.7417 33.9196 32.8552 33.523C33.1133 32.6297 33.5403 31.8077 34.099 31.0983C34.2896 31.5634 34.5136 32.0192 34.7716 32.4622C37.3541 28.9707 37.6551 24.2086 35.434 20.3971C34.4746 21.6933 33.8297 23.1651 33.5123 24.6988C30.7386 26.2869 28.6472 28.9065 27.74 32.0465C27.6322 32.4134 27.5441 32.785 27.4721 33.1596C27.0625 32.0535 26.7673 30.9184 26.5848 29.7716C25.1134 30.0235 23.5448 29.4216 22.6478 28.0492C21.6429 26.5121 21.8686 24.4354 23.1773 23.1496C24.2399 22.1055 25.7082 21.8014 27.0056 22.1749C27.968 18.6722 30.0009 15.4285 33.0464 12.9771C33.1981 12.8549 33.3511 12.7357 33.5053 12.6193C32.7711 10.9978 31.6506 9.46847 30.9048 8.70932C32.9247 9.29229 34.8545 10.2327 36.5905 11.5198C38.3016 11.2935 40.0435 11.3549 41.7434 11.7048L42.326 11.8258L43.3354 12.1772C45.2385 12.8409 46.6905 14.3986 47.2245 16.3353C45.2355 15.7862 43.1096 15.7989 41.1062 16.4022C42.0076 17.8356 42.6827 19.3593 43.136 20.9277C43.3447 21.6467 43.4145 22.398 43.3598 23.1442C44.9037 22.769 46.6084 23.358 47.5589 24.8123C48.5639 26.3494 48.3382 28.4261 47.0294 29.7119C45.4022 31.3108 42.8233 31.1744 41.3644 29.5265C41.2428 29.7381 41.1162 29.9471 40.9844 30.1532Z" fill="#723234"/>
<path d="M34.4904 19.0268C34.4159 18.9342 34.34 18.8427 34.2638 18.7537C34.5009 17.2713 34.444 15.7433 34.0848 14.2558C33.9542 13.717 33.7515 13.163 33.5053 12.6193C33.3511 12.7357 33.1981 12.8549 33.0464 12.9771C30.0009 15.4285 27.968 18.6722 27.0056 22.1749C27.8682 22.4232 28.6551 22.9711 29.197 23.8002C30.2019 25.3372 29.9762 27.4139 28.6675 28.6997C28.0679 29.2889 27.3391 29.6424 26.5848 29.7716C26.7673 30.9184 27.0625 32.0535 27.4721 33.1596C27.5441 32.785 27.6322 32.4134 27.74 32.0465C28.6472 28.9065 30.7386 26.2869 33.5123 24.6988C33.8297 23.1651 34.4746 21.6933 35.434 20.3971C35.1584 19.9243 34.8441 19.4661 34.4904 19.0268Z" fill="#723234"/>
<path d="M33.7931 50.2378C36.6766 49.3051 39.4417 47.8398 41.9432 45.8262C42.3481 45.5003 42.7404 45.1646 43.1201 44.8197C39.9904 44.6149 36.9207 43.5939 34.2561 41.7939C31.3887 43.3035 28.2287 43.9691 25.1148 43.8273C27.5904 46.641 30.5624 48.7864 33.7931 50.2378Z" fill="#723234"/>
<path d="M47.0294 29.7119C48.3382 28.4261 48.5639 26.3494 47.5589 24.8123C46.6084 23.358 44.9037 22.769 43.3598 23.1442C43.3559 23.197 43.3514 23.2498 43.3463 23.3026C43.1364 25.4972 42.4599 27.6189 41.3644 29.5265C42.8233 31.1744 45.4022 31.3108 47.0294 29.7119Z" fill="#723234"/>
<path d="M47.2245 16.3353C46.6905 14.3986 45.2385 12.8409 43.3354 12.1772L42.326 11.8258L41.7434 11.7048C40.0435 11.3549 38.3016 11.2935 36.5905 11.5198C37.792 12.4105 38.9006 13.4674 39.8821 14.6867C40.3285 15.2412 40.7364 15.8141 41.1062 16.4022C43.1096 15.7989 45.2355 15.7862 47.2245 16.3353Z" fill="#723234"/>
</g>
</svg>
