<svg width="53" height="52" viewBox="0 0 53 52" fill="none" xmlns="http://www.w3.org/2000/svg">
<g opacity="0.3">
<path d="M10.4566 6.28237C-0.535564 15.1304 -2.27363 31.2137 6.57443 42.2058C11.2624 48.0297 17.9814 51.2559 24.8981 51.6862L25.443 51.7143C28.4325 51.8366 31.4499 51.437 34.3478 50.4996C31.1171 49.0481 28.1451 46.9027 25.6695 44.089C22.1781 43.93 18.7446 42.7559 15.8469 40.6184C15.7336 40.5342 15.6462 40.4201 15.5921 40.2905C14.8314 38.4316 14.5463 36.4107 14.7633 34.4139L14.8097 33.9848C14.8539 33.5756 14.9344 33.1692 15.0479 32.7726C15.306 31.8793 15.733 31.0572 16.2918 30.3479C16.3904 30.5885 16.4979 30.8267 16.6145 31.0618C16.6833 31.2005 16.7552 31.3382 16.8302 31.4747C16.9134 31.6261 17.0005 31.776 17.0915 31.9245C17.2431 32.1719 17.4056 32.415 17.579 32.6532C17.583 32.6587 17.587 32.6642 17.591 32.6697C17.6534 32.7551 17.7171 32.8398 17.7823 32.9238C17.8146 32.9654 17.8472 33.0069 17.8801 33.0481L17.908 33.0829C18.7109 34.0802 19.6526 34.9012 20.6823 35.5391C18.4952 29.2048 18.9061 22.2551 21.7463 16.2517C20.9886 16.6132 20.2605 17.0677 19.5781 17.617C17.5118 19.2803 16.204 21.5378 15.705 23.9484C12.9313 25.5365 10.8399 28.1561 9.93273 31.2961C9.82494 31.663 9.73683 32.0346 9.6648 32.4092C7.06251 25.3818 9.08034 17.1842 15.2391 12.2267C15.6745 11.8762 16.1199 11.5496 16.5754 11.2467C16.6119 11.2242 16.6504 11.2069 16.6908 11.1948C19.053 10.5415 21.5364 10.4604 23.9362 10.9544L24.5187 11.0754L24.9032 11.2092C26.0402 9.7943 27.3464 8.47952 28.8185 7.29451C31.32 5.28097 34.0851 3.81566 36.9686 2.88288C34.4075 1.73225 31.6838 1.01772 28.916 0.75211L26.7779 0.63652C21.0511 0.565932 15.2665 2.41068 10.4566 6.28237Z" fill="#9A989C"/>
<path d="M34.3846 39.1439C36.0637 39.3594 37.7405 39.1987 39.3059 38.7015C39.1787 38.8518 38.2803 39.6911 37.715 40.1461C36.7931 40.8883 35.82 41.5242 34.8108 42.0556C37.4753 43.8556 40.5451 44.8766 43.6748 45.0814C45.7119 43.2309 47.3858 41.1155 48.686 38.8305C48.2 38.563 47.7334 38.2603 47.2902 37.9247C43.3185 38.828 38.9967 37.4827 36.2699 34.0951C36.2198 34.0328 36.1711 33.9709 36.1226 33.9079C35.7713 33.9239 35.4164 33.9098 35.0612 33.864C34.8583 33.8383 34.6579 33.8015 34.4596 33.7561C34.7723 33.427 35.0613 33.0821 35.3263 32.7239C35.0683 32.2809 34.8443 31.8252 34.6537 31.36C34.095 32.0694 33.6679 32.8914 33.4099 33.7847C33.2964 34.1813 33.2158 34.5878 33.1716 34.9969L33.1253 35.426C32.9974 36.6023 33.0438 37.7869 33.259 38.9418C33.629 39.0275 34.0046 39.0952 34.3846 39.1439Z" fill="#9A989C"/>
<path d="M41.5391 30.4149L41.2156 30.9213L40.5253 31.7389C39.4145 33.0554 37.8122 33.8309 36.1226 33.9079C36.1711 33.9709 36.2198 34.0328 36.2699 34.0951C38.9967 37.4827 43.3185 38.828 47.2902 37.9247C47.7334 38.2603 48.2 38.563 48.686 38.8305C53.7231 29.9783 53.1537 18.5796 46.38 10.1645C43.7678 6.91926 40.5249 4.48063 36.9686 2.88288C34.0851 3.81566 31.32 5.28097 28.8185 7.29451C27.3464 8.47952 26.0402 9.7943 24.9032 11.2092L25.5281 11.4268C27.4313 12.0905 28.8832 13.6481 29.4172 15.5848C26.9044 14.8911 24.1731 15.0942 21.7463 16.2517C18.9061 22.2551 18.4952 29.2048 20.6823 35.5391C23.1499 37.0679 26.1262 37.5498 28.9283 36.9125C30.2083 37.8817 31.6828 38.5765 33.259 38.9418C33.0438 37.7869 32.9974 36.6023 33.1253 35.426L33.1716 34.9969C33.2158 34.5878 33.2964 34.1813 33.4099 33.7847C33.6679 32.8914 34.095 32.0694 34.6537 31.36C34.8443 31.8252 35.0683 32.2809 35.3263 32.7239C37.9087 29.2324 38.2098 24.4703 35.9887 20.6589C35.0293 21.955 34.3844 23.4268 34.0669 24.9606C31.2933 26.5486 29.2019 29.1682 28.2947 32.3082C28.1869 32.6752 28.0988 33.0467 28.0267 33.4213C27.6171 32.3152 27.322 31.1802 27.1395 30.0333C25.6681 30.2852 24.0995 29.6834 23.2025 28.3109C22.1976 26.7738 22.4233 24.6971 23.732 23.4114C24.7946 22.3673 26.2629 22.0631 27.5603 22.4366C28.5227 18.9339 30.5556 15.6902 33.6011 13.2388C33.7528 13.1167 33.9058 12.9974 34.06 12.881C33.3258 11.2595 32.2053 9.73019 31.4595 8.97104C33.4794 9.55401 35.4092 10.4944 37.1452 11.7815C38.8563 11.5553 40.5982 11.6166 42.2981 11.9666L42.8806 12.0876L43.8901 12.4389C45.7932 13.1027 47.2452 14.6603 47.7791 16.597C45.7902 16.0479 43.6643 16.0607 41.6609 16.6639C42.5623 18.0973 43.2374 19.6211 43.6907 21.1894C43.8994 21.9084 43.9692 22.6597 43.9145 23.4059C45.4584 23.0307 47.1631 23.6197 48.1136 25.074C49.1185 26.6111 48.8929 28.6878 47.5841 29.9736C45.9569 31.5725 43.378 31.4361 41.919 29.7882C41.7975 29.9998 41.6708 30.2088 41.5391 30.4149Z" fill="#9A989C"/>
<path d="M35.0451 19.2885C34.9706 19.1959 34.8946 19.1044 34.8184 19.0154C35.0556 17.533 34.9987 16.005 34.6395 14.5175C34.5089 13.9787 34.3061 13.4247 34.06 12.881C33.9058 12.9974 33.7528 13.1167 33.6011 13.2388C30.5556 15.6902 28.5227 18.9339 27.5603 22.4366C28.4229 22.6849 29.2098 23.2328 29.7517 24.0619C30.7566 25.599 30.5309 27.6757 29.2222 28.9614C28.6226 29.5506 27.8938 29.9041 27.1395 30.0333C27.322 31.1802 27.6171 32.3152 28.0267 33.4213C28.0988 33.0467 28.1869 32.6752 28.2947 32.3082C29.2019 29.1682 31.2933 26.5486 34.0669 24.9606C34.3844 23.4268 35.0293 21.955 35.9887 20.6589C35.7131 20.186 35.3987 19.7278 35.0451 19.2885Z" fill="#9A989C"/>
<path d="M34.3478 50.4996C37.2313 49.5668 39.9964 48.1015 42.4979 46.0879C42.9027 45.762 43.2951 45.4263 43.6748 45.0814C40.5451 44.8766 37.4753 43.8556 34.8108 42.0556C31.9434 43.5652 28.7834 44.2308 25.6695 44.089C28.1451 46.9027 31.1171 49.0481 34.3478 50.4996Z" fill="#9A989C"/>
<path d="M47.5841 29.9736C48.8929 28.6878 49.1185 26.6111 48.1136 25.074C47.1631 23.6197 45.4584 23.0307 43.9145 23.4059C43.9106 23.4587 43.9061 23.5116 43.901 23.5643C43.6911 25.759 43.0146 27.8807 41.919 29.7882C43.378 31.4361 45.9569 31.5725 47.5841 29.9736Z" fill="#9A989C"/>
<path d="M47.7791 16.597C47.2452 14.6603 45.7932 13.1027 43.8901 12.4389L42.8806 12.0876L42.2981 11.9666C40.5982 11.6166 38.8563 11.5553 37.1452 11.7815C38.3466 12.6722 39.4553 13.7291 40.4368 14.9484C40.8832 15.5029 41.2911 16.0758 41.6609 16.6639C43.6643 16.0607 45.7902 16.0479 47.7791 16.597Z" fill="#9A989C"/>
</g>
</svg>
