<svg width="133" height="37" viewBox="0 0 133 37" fill="none" xmlns="http://www.w3.org/2000/svg">
<path d="M129.412 33.4542H129.404C128.31 33.5559 126.922 33.4796 126.079 32.6836C125.483 32.1094 125.036 31.2443 125.156 30.1285L125.101 13.7616C125.13 13.3654 124.832 13.0492 124.425 13.0492H122.804H121.455C121.434 13.0492 121.412 13.0492 121.394 13.0492V13.0383C121.154 13.0092 120.979 12.813 121.001 12.5658C120.997 12.3477 120.99 12.0351 120.99 11.8316C120.99 11.5735 121.197 11.3627 121.455 11.3518L128.75 11.3591H128.743C129.59 11.3591 130.095 11.5045 130.077 10.5849L130.059 9.29825C130.048 8.72761 129.804 8.64038 129.248 8.65492V8.64402H125.628C125.606 8.64402 125.588 8.63311 125.559 8.63311C125.159 8.62948 125.123 8.29509 125.123 8.29509H125.119L125.017 1.87992L125.01 1.41105C124.956 1.1748 124.81 1.06212 124.454 1.06576H122.72C122.622 1.06576 122.546 1.07303 122.473 1.08757L122.437 1.09847C122.397 1.10937 122.368 1.12755 122.335 1.14572C122.288 1.1748 122.244 1.21115 122.215 1.25476C122.193 1.32382 122.168 1.38924 122.142 1.4583C120.659 5.63816 117.214 8.47682 113.099 8.92025C113.078 8.92025 113.059 8.92025 113.038 8.92388C112.732 8.96387 112.569 9.10925 112.576 9.61083L112.594 10.7703C112.601 11.181 112.747 11.3119 113.067 11.3409L116.552 11.3518L116.56 30.2012C116.403 31.6805 115.916 36.1765 123.4 36.1838C125.054 36.1838 126.584 36.1111 127.867 35.9766C128.456 35.9221 128.997 35.8603 129.27 35.8131C129.335 35.8058 129.394 35.784 129.452 35.7585C129.557 35.704 129.692 35.6168 129.753 35.4569L129.906 34.0285C129.957 33.705 129.884 33.6032 129.79 33.5232C129.706 33.4505 129.579 33.4433 129.423 33.4578M69.0328 10.6031C73.3035 10.5304 73.776 14.6012 73.7106 18.1632L73.6634 20.722H73.6488L64.0097 20.831L64.057 18.3267C64.1151 15.0446 64.7003 10.6758 69.0328 10.6031ZM99.9201 17.5526C96.1546 16.7384 92.9125 16.0442 92.9598 13.4527C92.9816 12.3659 93.6831 10.574 98.0701 10.4504C98.5971 10.4395 99.1096 10.4613 99.6003 10.5013C100.135 10.5413 100.643 10.6104 101.13 10.694C101.2 10.7049 101.261 10.7194 101.327 10.7303C101.436 10.7521 101.545 10.7739 101.65 10.7957C102.094 10.8939 102.519 11.0029 102.926 11.1265C103.315 11.261 104.013 11.5154 104.711 11.7662C105.408 12.017 106.106 12.2678 106.484 12.4095C106.517 12.4277 106.553 12.4422 106.586 12.4568C107 12.5949 107.328 12.8093 107.567 12.6967C107.767 12.6167 107.905 12.4713 107.909 12.1842C107.909 12.1733 107.909 12.1006 107.909 11.9952C107.913 11.9261 107.916 11.6499 107.924 11.3518C107.927 11.0502 107.935 10.7739 107.935 10.7049C107.935 10.5958 107.935 10.5231 107.935 10.5159C107.935 10.2324 107.807 10.087 107.611 10.0179C107.2 9.83255 106.506 9.54541 105.579 9.2401C103.678 8.61857 100.785 7.92435 97.2923 7.91345C97.1142 7.91345 96.947 7.93162 96.7761 7.93889C89.8158 8.30599 86.6136 12.1805 86.5446 15.9751C86.4283 22.4739 92.2365 23.7896 97.3577 24.9563C101.218 25.8287 104.551 26.5883 104.5 29.4379C104.463 31.5569 102.504 33.0107 99.4513 33.2543V33.2179C99.0478 33.2506 98.6407 33.2724 98.23 33.2797C98.0846 33.2833 97.9429 33.2797 97.8011 33.2797C97.5758 33.2724 97.3541 33.2579 97.1323 33.2434C96.8089 33.2325 96.4854 33.2179 96.1728 33.1925C95.7003 33.1561 95.246 33.098 94.8025 33.0253C94.6499 32.9998 94.4936 32.978 94.3409 32.949C94.2973 32.9381 94.2501 32.9308 94.2064 32.9199C93.7012 32.8181 93.2105 32.6945 92.7271 32.5528C92.3419 32.4183 91.5968 32.153 90.8408 31.8767C88.5691 30.9026 86.6464 29.4779 85.2434 27.726C85.1525 27.6133 85.018 27.5406 84.8617 27.5442C84.6909 27.5442 84.5528 27.6351 84.4583 27.7587H84.4547C83.0226 29.5578 81.1071 31.0589 78.8827 32.1094C77.8214 32.5237 76.7201 32.9526 76.5457 33.0107L76.502 33.0253C76.3639 33.0689 76.2185 33.1052 76.0732 33.1452C75.935 33.1816 75.7933 33.2216 75.6515 33.2579C75.5279 33.2906 75.4044 33.3161 75.2772 33.3451C75.0845 33.3887 74.8919 33.4287 74.7029 33.4651C74.6229 33.4796 74.543 33.4942 74.463 33.5087C74.194 33.5559 73.9214 33.5996 73.6488 33.6323L73.6052 33.6395C72.9728 33.7159 72.3295 33.7631 71.6752 33.774C71.279 33.7813 70.8865 33.774 70.4976 33.7522C66.0379 33.4178 63.8207 30.6264 63.9152 25.4289L63.9516 23.368C69.538 23.2953 79.1844 23.1681 79.8823 23.1572C80.8709 23.139 82.6482 23.1499 83.0226 22.0341L83.0662 21.4743C82.6773 11.6753 75.3862 8.27692 69.0583 8.38596C63.1047 8.48773 54.6469 12.9911 54.4724 22.7029C54.2834 33.0798 62.4977 36.6272 70.2468 36.4964C72.0314 36.4673 73.6779 36.2674 75.1499 35.9875C78.7264 35.3369 81.9431 34.0721 84.5528 32.3856L84.5673 32.3965C84.6546 32.3238 84.7636 32.2729 84.8872 32.2693C85.0144 32.2693 85.1271 32.3165 85.2143 32.3929H85.2216C88.9108 34.6754 93.8902 36.0311 99.404 35.9403V35.9003C106.455 35.6968 111.057 32.1166 111.151 26.741C111.275 19.9987 105.238 18.7047 99.9056 17.5562L99.9201 17.5526ZM55.203 2.93761C55.2684 2.68318 55.3411 2.37424 55.3702 2.24702C55.3774 2.22885 55.3774 2.21068 55.3811 2.1925V2.18523C55.3956 2.14162 55.4101 2.098 55.4065 2.05075C55.4065 1.87992 55.3084 1.73817 55.1739 1.6473C55.1266 1.59278 55.0539 1.5528 54.9304 1.5528H54.8904H54.2252H52.1644H52.1535C52.0008 1.55644 51.8954 1.60732 51.8155 1.69455L51.7973 1.71636C51.7682 1.75271 51.7391 1.79269 51.7173 1.83631L51.7028 1.86902C51.5865 2.12344 51.5356 2.50145 51.3938 2.93761L44.9823 23.6006L36.6226 2.03258H36.6153C36.5099 1.74907 36.2301 1.53826 35.9029 1.53826L27.2234 1.531C26.9435 1.531 26.7182 1.75271 26.7254 2.02531C26.7254 2.09437 26.74 2.15979 26.7654 2.21794C26.9617 2.78859 27.2125 3.49371 27.2888 3.71542C27.3688 3.94077 30.1202 11.2537 30.1202 11.2537L25.2425 24.8728L16.0941 2.01077H16.0904C15.9814 1.72727 15.7015 1.52009 15.3744 1.52009L4.02701 1.50919C3.61266 1.51282 3.28191 1.83994 3.28918 2.24702L3.29645 2.2761C3.29645 2.30518 3.29281 2.33425 3.29281 2.36697C3.29281 2.41785 3.29281 2.95214 3.30008 2.9994L3.30735 3.01757L3.30008 3.05028C3.30735 3.45736 3.64901 3.78812 4.067 3.78812C4.09971 3.78812 4.13605 3.78085 4.16877 3.77721C4.25963 3.78448 4.3505 3.78812 4.45227 3.78812H5.5463C5.93884 3.81719 6.91293 3.98802 7.29094 4.95121C9.78067 12.4241 12.8556 19.7188 16.6974 30.0594L18.6129 35.2715C18.7256 35.5477 18.9982 35.7404 19.318 35.7404H25.0862C25.4024 35.744 25.6678 35.5514 25.7732 35.2824H25.7804L31.9339 16.7747L37.3822 31.8113L37.4041 31.8222L38.6326 35.1734C38.7053 35.5078 39.0142 35.7622 39.3777 35.7622H44.717C45.0332 35.7658 45.3022 35.5768 45.4112 35.3042H45.4148L45.8437 33.9158C45.8655 33.8503 45.8873 33.7886 45.9091 33.7195C45.9237 33.6686 45.9382 33.6141 45.9491 33.5632L46.0327 33.2979H46.0218C48.4716 24.3203 53.2003 11.0792 55.2102 2.94124L55.203 2.93761Z" fill="black"/>
</svg>
