<svg width="268" height="54" viewBox="0 0 268 54" fill="none" xmlns="http://www.w3.org/2000/svg">
<path d="M15.3452 12.3325C7.40683 19.1369 6.48762 31.088 13.2921 39.0264C16.8973 43.2324 21.9472 45.468 27.0796 45.6283L27.4838 45.6367C29.7007 45.6589 31.9262 45.2939 34.051 44.5333C31.6251 43.5323 29.3749 42.0114 27.4771 39.9842C24.8877 39.9463 22.318 39.1554 20.123 37.6386C20.0371 37.5789 19.9698 37.4963 19.9268 37.4016C19.3208 36.0422 19.0634 34.5521 19.1785 33.0683L19.203 32.7494C19.2264 32.4454 19.2767 32.1425 19.3518 31.8462C19.5224 31.1787 19.8199 30.5602 20.2174 30.022C20.296 30.198 20.3811 30.3719 20.4728 30.5433C20.5269 30.6445 20.5833 30.7448 20.642 30.8442C20.7071 30.9545 20.775 31.0635 20.8458 31.1714C20.9638 31.3511 21.0897 31.5274 21.2235 31.6999C21.2266 31.7039 21.2297 31.7079 21.2328 31.7118C21.2809 31.7736 21.3301 31.8349 21.3803 31.8957C21.4051 31.9257 21.4302 31.9557 21.4556 31.9855L21.477 32.0106C22.0945 32.7309 22.8107 33.3173 23.5879 33.7662C21.8232 29.125 21.9685 23.9686 23.9346 19.4575C23.3817 19.7425 22.8528 20.0958 22.36 20.5183C20.8677 21.7974 19.9509 23.4992 19.6365 25.296C17.6186 26.5356 16.1296 28.5235 15.5296 30.8698C15.4582 31.144 15.4014 31.4212 15.3567 31.7002C13.2686 26.5553 14.5754 20.4379 19.0232 16.6254C19.3376 16.3559 19.6601 16.1038 19.9904 15.8691C20.017 15.8516 20.0451 15.8379 20.0747 15.828C21.8092 15.2901 23.6466 15.1732 25.4352 15.4842L25.8694 15.5605L26.1572 15.6508C26.9669 14.5769 27.9041 13.5732 28.9673 12.6619C30.7738 11.1135 32.7882 9.96496 34.9024 9.20816C32.9793 8.4146 30.9457 7.94774 28.8899 7.81435L27.3037 7.77767C23.0608 7.85643 18.8188 9.35503 15.3452 12.3325Z" fill="white"/>
<path d="M33.8184 36.1224C35.0668 36.2436 36.305 36.0862 37.453 35.6822C37.3622 35.7964 36.7161 36.4385 36.3078 36.7884C35.642 37.3592 34.9359 37.8524 34.2006 38.2691C36.2152 39.5412 38.5121 40.2271 40.8346 40.3072C42.301 38.89 43.4922 37.2851 44.4029 35.563C44.0368 35.376 43.6844 35.1625 43.3484 34.9241C40.4277 35.684 37.1961 34.7866 35.0991 32.3401C35.0606 32.2951 35.0231 32.2504 34.9857 32.2048C34.726 32.2247 34.4627 32.2224 34.1987 32.1966C34.0478 32.1822 33.8985 32.1595 33.7506 32.1304C33.9747 31.8796 34.1809 31.6175 34.3689 31.3462C34.1677 31.024 33.9914 30.6916 33.8395 30.3514C33.442 30.8896 33.1445 31.5082 32.9739 32.1757C32.8989 32.472 32.8485 32.7749 32.8251 33.0789L32.8006 33.3977C32.7328 34.2718 32.7943 35.1481 32.9801 35.9985C33.2561 36.0535 33.5358 36.095 33.8184 36.1224Z" fill="white"/>
<path d="M38.9173 29.4939L38.6893 29.8764L38.1968 30.4977C37.4043 31.4981 36.2353 32.1091 34.9857 32.2048C35.0231 32.2504 35.0606 32.2951 35.0991 32.3401C37.1961 34.7866 40.4277 35.684 43.3484 34.9241C43.6844 35.1625 44.0368 35.376 44.4029 35.563C47.9309 28.8918 47.2483 20.4629 42.0391 14.3856C40.0302 12.0419 37.5728 10.3101 34.9024 9.20816C32.7882 9.96496 30.7738 11.1135 28.9673 12.6619C27.9041 13.5732 26.9669 14.5769 26.1572 15.6508L26.625 15.7976C28.0497 16.2456 29.1606 17.366 29.6004 18.7881C27.7236 18.3318 25.7054 18.5447 23.9346 19.4575C21.9685 23.9686 21.8232 29.125 23.5879 33.7662C25.4504 34.842 27.6657 35.1308 29.7263 34.5947C30.6965 35.2832 31.8044 35.764 32.9801 35.9985C32.7943 35.1481 32.7328 34.2718 32.8006 33.3977L32.8251 33.0789C32.8485 32.7749 32.8989 32.472 32.9739 32.1757C33.1445 31.5082 33.442 30.8896 33.8395 30.3514C33.9914 30.6916 34.1677 31.024 34.3689 31.3462C36.2016 28.7012 36.3156 25.1675 34.5834 22.3956C33.9025 23.3775 33.4586 24.4823 33.2586 25.6254C31.2407 26.865 29.7517 28.8529 29.1517 31.1992C29.0803 31.4734 29.0235 31.7506 28.9788 32.0297C28.6501 31.2199 28.4056 30.386 28.2441 29.5408C27.1602 29.761 25.9847 29.3512 25.289 28.3553C24.5095 27.2399 24.6292 25.6967 25.569 24.7145C26.3321 23.917 27.4126 23.6581 28.3819 23.905C29.0146 21.2889 30.4459 18.8401 32.6453 16.9549C32.7549 16.8609 32.8655 16.7691 32.977 16.6794C32.3962 15.4953 31.5313 14.3883 30.9616 13.8431C32.4709 14.2287 33.9216 14.881 35.2368 15.7945C36.4988 15.5878 37.7903 15.5933 39.0573 15.8136L39.4915 15.8899L40.2471 16.127C41.6718 16.5751 42.7827 17.6954 43.2225 19.1175C41.7369 18.7564 40.1628 18.8145 38.6929 19.3071C39.3932 20.348 39.9281 21.4611 40.2997 22.6123C40.4707 23.14 40.5396 23.6948 40.5161 24.2487C41.651 23.9355 42.927 24.3327 43.6642 25.388C44.4436 26.5034 44.324 28.0466 43.3842 29.0288C42.2156 30.2502 40.3026 30.2082 39.1843 29.0211C39.0992 29.1806 39.0102 29.3383 38.9173 29.4939Z" fill="white"/>
<path d="M33.8532 21.4023C33.7959 21.3354 33.7376 21.2694 33.6791 21.2052C33.8208 20.1019 33.7437 18.9716 33.4436 17.8781C33.3346 17.4821 33.1718 17.0764 32.977 16.6794C32.8655 16.7691 32.7549 16.8609 32.6453 16.9549C30.4459 18.8401 29.0146 21.2889 28.3819 23.905C29.0265 24.0692 29.6218 24.457 30.0421 25.0586C30.8215 26.174 30.7019 27.7171 29.7621 28.6993C29.3315 29.1494 28.7998 29.4279 28.2441 29.5408C28.4056 30.386 28.6501 31.2199 28.9788 32.0297C29.0235 31.7506 29.0803 31.4734 29.1517 31.1992C29.7517 28.8529 31.2407 26.865 33.2586 25.6254C33.4586 24.4823 33.9025 23.3775 34.5834 22.3956C34.3685 22.0517 34.1252 21.7195 33.8532 21.4023Z" fill="white"/>
<path d="M34.051 44.5333C36.1651 43.7765 38.1795 42.628 39.986 41.0795C40.2784 40.8289 40.5613 40.5713 40.8346 40.3072C38.5121 40.2271 36.2152 39.5412 34.2006 38.2691C32.1116 39.4527 29.7865 40.018 27.4771 39.9842C29.3749 42.0114 31.6251 43.5323 34.051 44.5333Z" fill="white"/>
<path d="M43.3842 29.0288C44.324 28.0466 44.4436 26.5034 43.6642 25.388C42.927 24.3327 41.651 23.9355 40.5161 24.2487C40.5145 24.2879 40.5123 24.3271 40.5097 24.3663C40.4045 25.9965 39.9521 27.5833 39.1843 29.0211C40.3026 30.2082 42.2156 30.2502 43.3842 29.0288Z" fill="white"/>
<path d="M43.2225 19.1175C42.7827 17.6954 41.6718 16.5751 40.2471 16.127L39.4915 15.8899L39.0573 15.8136C37.7903 15.5933 36.4988 15.5878 35.2368 15.7945C36.147 16.4267 36.9922 17.184 37.747 18.0646C38.0903 18.4651 38.4055 18.88 38.6929 19.3071C40.1628 18.8145 41.7369 18.7564 43.2225 19.1175Z" fill="white"/>
<path d="M260.747 35.2245H267.093C266.106 37.8755 264.611 39.9202 262.609 41.3585C260.606 42.7687 258.223 43.4737 255.459 43.4737C253.711 43.4737 252.075 43.1635 250.552 42.543C249.057 41.8944 247.732 41.0201 246.576 39.9202C245.448 38.7921 244.559 37.4807 243.91 35.9859C243.262 34.4912 242.938 32.8978 242.938 31.2056C242.938 29.4853 243.248 27.8777 243.868 26.383C244.517 24.8882 245.391 23.5909 246.491 22.491C247.619 21.3911 248.931 20.5309 250.425 19.9105C251.92 19.2618 253.542 18.9375 255.29 18.9375C258.11 18.9375 260.55 19.6708 262.609 21.1373C264.668 22.6038 266.162 24.6626 267.093 27.3137H260.747C260.183 26.2138 259.45 25.41 258.548 24.9023C257.673 24.3665 256.588 24.0986 255.29 24.0986C254.303 24.0986 253.401 24.2819 252.583 24.6485C251.765 24.9869 251.06 25.4664 250.468 26.0868C249.875 26.7073 249.41 27.4547 249.072 28.3289C248.761 29.175 248.606 30.1198 248.606 31.1633C248.606 32.1786 248.775 33.1234 249.114 33.9977C249.452 34.8719 249.918 35.6334 250.51 36.2821C251.13 36.9025 251.85 37.3961 252.667 37.7627C253.513 38.1293 254.43 38.3126 255.417 38.3126C256.602 38.3126 257.603 38.0729 258.421 37.5935C259.267 37.0858 260.042 36.2962 260.747 35.2245Z" fill="white"/>
<path d="M233.85 35.9859H239.984C239.618 37.0858 239.068 38.1011 238.335 39.0318C237.629 39.9343 236.783 40.724 235.796 41.4008C234.809 42.0495 233.723 42.5571 232.539 42.9238C231.354 43.2904 230.113 43.4737 228.816 43.4737C227.039 43.4737 225.375 43.1635 223.824 42.543C222.273 41.9226 220.919 41.0624 219.763 39.9625C218.635 38.8626 217.747 37.5794 217.098 36.1129C216.449 34.6181 216.125 33.0106 216.125 31.2902C216.125 29.5699 216.435 27.9623 217.056 26.4676C217.704 24.9446 218.579 23.6332 219.679 22.5333C220.807 21.4052 222.118 20.5309 223.613 19.9105C225.136 19.2618 226.757 18.9375 228.478 18.9375C230.226 18.9375 231.834 19.2618 233.3 19.9105C234.795 20.5309 236.078 21.4052 237.15 22.5333C238.222 23.6332 239.054 24.9587 239.646 26.5099C240.266 28.061 240.577 29.7391 240.577 31.544C240.577 31.9953 240.563 32.376 240.534 32.6862C240.506 32.9683 240.45 33.3067 240.365 33.7015H222.217C222.386 34.4066 222.654 35.0553 223.021 35.6475C223.415 36.2116 223.895 36.691 224.459 37.0858C225.023 37.4807 225.657 37.7909 226.363 38.0165C227.096 38.2139 227.871 38.3126 228.689 38.3126C229.846 38.3126 230.804 38.1434 231.566 37.805C232.356 37.4384 233.117 36.832 233.85 35.9859ZM222.048 28.752H235.035C234.668 27.229 233.935 26.0727 232.835 25.2831C231.735 24.4934 230.311 24.0986 228.562 24.0986C227.716 24.0986 226.941 24.1973 226.236 24.3947C225.559 24.5921 224.938 24.8882 224.374 25.2831C223.838 25.6779 223.373 26.1715 222.978 26.7637C222.583 27.3278 222.273 27.9905 222.048 28.752Z" fill="white"/>
<path d="M205.437 42.9237V24.6061H202.688V19.4873H205.437V11.6611H211.064V19.4873H214.448V24.6061H211.064V42.9237H205.437Z" fill="white"/>
<path d="M164.797 42.924V19.4877H169.958V21.6875C170.776 20.7004 171.65 19.9953 172.581 19.5723C173.511 19.1493 174.668 18.9377 176.05 18.9377C177.685 18.9377 179.039 19.2198 180.111 19.7838C181.183 20.3479 182.127 21.2786 182.945 22.5759C183.904 21.3068 184.976 20.3902 186.16 19.8261C187.345 19.2339 188.769 18.9377 190.433 18.9377C193.592 18.9377 195.961 19.812 197.54 21.5606C199.148 23.3091 199.951 25.9179 199.951 29.3868V42.924H194.325V30.0636C194.325 28.0331 193.958 26.5383 193.225 25.5794C192.52 24.5924 191.42 24.0988 189.925 24.0988C188.29 24.0988 187.091 24.6911 186.33 25.8756C185.568 27.0319 185.187 28.865 185.187 31.3751V42.924H179.561V30.0636C179.561 27.9767 179.194 26.4678 178.461 25.5371C177.756 24.5783 176.614 24.0988 175.034 24.0988C173.37 24.0988 172.186 24.6629 171.481 25.791C170.776 26.9191 170.423 28.7804 170.423 31.3751V42.924H164.797Z" fill="white"/>
<path d="M135.484 31.2905C135.484 29.4855 135.781 27.8356 136.373 26.3409C136.965 24.818 137.783 23.5207 138.826 22.449C139.898 21.3491 141.167 20.4889 142.634 19.8684C144.1 19.248 145.694 18.9377 147.414 18.9377C149.134 18.9377 150.587 19.2339 151.771 19.8261C152.984 20.3902 154.084 21.3209 155.071 22.6182V19.4877H160.232V42.924H155.071V39.8781C153.943 41.1755 152.773 42.1061 151.56 42.6702C150.375 43.206 148.951 43.474 147.287 43.474C145.567 43.474 143.987 43.1778 142.549 42.5856C141.111 41.9651 139.87 41.119 138.826 40.0473C137.783 38.9475 136.965 37.6642 136.373 36.1977C135.781 34.703 135.484 33.0672 135.484 31.2905ZM141.153 31.4174C141.153 32.4327 141.322 33.3633 141.661 34.2094C141.999 35.0555 142.465 35.7888 143.057 36.4092C143.677 37.0015 144.41 37.4668 145.257 37.8052C146.131 38.1437 147.076 38.3129 148.091 38.3129C149.106 38.3129 150.023 38.1437 150.841 37.8052C151.687 37.4668 152.406 36.9874 152.998 36.3669C153.619 35.7465 154.084 35.0132 154.394 34.1671C154.733 33.2928 154.902 32.334 154.902 31.2905C154.902 30.247 154.733 29.2881 154.394 28.4138C154.056 27.5113 153.576 26.7498 152.956 26.1294C152.335 25.4807 151.588 24.9872 150.714 24.6488C149.868 24.2821 148.937 24.0988 147.922 24.0988C146.935 24.0988 146.032 24.2821 145.214 24.6488C144.396 25.0154 143.677 25.523 143.057 26.1717C142.465 26.8204 141.999 27.5959 141.661 28.4984C141.322 29.3727 141.153 30.3457 141.153 31.4174Z" fill="white"/>
<path d="M126.397 35.9862H132.531C132.165 37.0861 131.615 38.1014 130.881 39.0321C130.176 39.9345 129.33 40.7242 128.343 41.4011C127.356 42.0497 126.27 42.5574 125.086 42.924C123.901 43.2906 122.66 43.474 121.363 43.474C119.586 43.474 117.922 43.1637 116.371 42.5433C114.82 41.9228 113.466 41.0626 112.31 39.9627C111.182 38.8628 110.294 37.5796 109.645 36.1131C108.996 34.6184 108.672 33.0108 108.672 31.2905C108.672 29.5701 108.982 27.9626 109.603 26.4678C110.251 24.9449 111.125 23.6335 112.225 22.5336C113.353 21.4055 114.665 20.5312 116.16 19.9107C117.683 19.2621 119.304 18.9377 121.025 18.9377C122.773 18.9377 124.381 19.2621 125.847 19.9107C127.342 20.5312 128.625 21.4055 129.697 22.5336C130.769 23.6335 131.601 24.959 132.193 26.5101C132.813 28.0613 133.123 29.7393 133.123 31.5443C133.123 31.9955 133.109 32.3763 133.081 32.6865C133.053 32.9685 132.997 33.3069 132.912 33.7018H114.764C114.933 34.4068 115.201 35.0555 115.567 35.6478C115.962 36.2118 116.442 36.6912 117.006 37.0861C117.57 37.4809 118.204 37.7911 118.909 38.0168C119.643 38.2142 120.418 38.3129 121.236 38.3129C122.392 38.3129 123.351 38.1437 124.113 37.8052C124.902 37.4386 125.664 36.8323 126.397 35.9862ZM114.594 28.7522H127.582C127.215 27.2293 126.482 26.073 125.382 25.2833C124.282 24.4936 122.858 24.0988 121.109 24.0988C120.263 24.0988 119.488 24.1975 118.782 24.3949C118.106 24.5924 117.485 24.8885 116.921 25.2833C116.385 25.6782 115.92 26.1717 115.525 26.764C115.13 27.328 114.82 27.9908 114.594 28.7522Z" fill="white"/>
<path d="M95.8125 42.9238V19.4874H100.974V21.7719C101.368 21.2078 101.735 20.7425 102.073 20.3758C102.412 20.0092 102.793 19.7272 103.216 19.5298C103.639 19.3041 104.104 19.149 104.612 19.0644C105.119 18.9798 105.74 18.9375 106.473 18.9375V24.3524C104.781 24.3524 103.512 24.8177 102.666 25.7484C101.848 26.6509 101.439 28.0328 101.439 29.8942V42.9238H95.8125Z" fill="white"/>
<path d="M84.0154 42.9237V24.6061H81.2656V19.4873H84.0154V11.6611H89.6418V19.4873H93.0261V24.6061H89.6418V42.9237H84.0154Z" fill="white"/>
<path d="M59.3359 33.9982H65.3854C65.5264 35.3237 65.9353 36.3108 66.6122 36.9594C67.3173 37.5799 68.3184 37.8901 69.6158 37.8901C70.2362 37.8901 70.8003 37.8055 71.3079 37.6363C71.8438 37.4389 72.295 37.171 72.6616 36.8325C73.0283 36.4941 73.3103 36.0993 73.5077 35.648C73.7333 35.1686 73.8461 34.6468 73.8461 34.0828C73.8461 33.1521 73.6205 32.3906 73.1693 31.7984C72.718 31.1779 72.1399 30.6703 71.4348 30.2754C70.758 29.8806 70.0247 29.5563 69.235 29.3025C68.4454 29.0204 67.698 28.7525 66.9929 28.4987C65.9494 28.1038 65.0188 27.6244 64.2009 27.0604C63.383 26.4963 62.692 25.8617 62.128 25.1567C61.5921 24.4234 61.1832 23.6337 60.9012 22.7877C60.6192 21.9134 60.4781 20.9827 60.4781 19.9956C60.4781 18.7547 60.7038 17.5984 61.155 16.5267C61.6344 15.4268 62.2831 14.482 63.101 13.6923C63.9471 12.9027 64.92 12.2822 66.0199 11.831C67.1198 11.3515 68.3043 11.1118 69.5735 11.1118C70.899 11.1118 72.1117 11.3233 73.2116 11.7464C74.3115 12.1694 75.2563 12.7758 76.0459 13.5654C76.8638 14.3269 77.5125 15.2576 77.9919 16.3575C78.4714 17.4574 78.7534 18.6701 78.838 19.9956H72.8309C72.7462 18.9239 72.4219 18.106 71.8579 17.542C71.2938 16.9779 70.5182 16.6959 69.5312 16.6959C68.5723 16.6959 67.7967 16.992 67.2044 17.5843C66.6122 18.1766 66.3161 18.938 66.3161 19.8687C66.3161 20.3482 66.3866 20.7853 66.5276 21.1801C66.6968 21.5468 66.9788 21.8852 67.3737 22.1954C67.7685 22.5056 68.3043 22.8159 68.9812 23.1261C69.6581 23.4363 70.5041 23.7607 71.5194 24.0991C72.9296 24.5785 74.1423 25.1144 75.1576 25.7066C76.1729 26.2989 77.0048 26.9757 77.6535 27.7372C78.3304 28.4987 78.8239 29.3589 79.1341 30.3178C79.4443 31.2484 79.5995 32.2919 79.5995 33.4482C79.5995 34.8584 79.3456 36.1839 78.838 37.4248C78.3304 38.6375 77.6253 39.6951 76.7228 40.5976C75.8203 41.5001 74.7627 42.2051 73.55 42.7128C72.3373 43.2204 71.0259 43.4742 69.6158 43.4742C68.1774 43.4742 66.8519 43.2486 65.6392 42.7974C64.4265 42.3461 63.3689 41.7116 62.4664 40.8937C61.5639 40.0476 60.8448 39.0464 60.3089 37.8901C59.7731 36.7056 59.4487 35.4083 59.3359 33.9982Z" fill="white"/>
</svg>
