<svg width="521" height="92" viewBox="0 0 521 92" fill="none" xmlns="http://www.w3.org/2000/svg">
<path fill-rule="evenodd" clip-rule="evenodd" d="M110.825 59.1537L98.5373 59.6998C98.7665 62.5569 99.4253 65.1654 100.514 67.5255C101.602 69.8282 103.063 71.799 104.896 73.4378C106.729 75.0193 108.878 76.2141 111.341 77.0221C113.804 77.8301 116.497 78.1692 119.419 78.0393C122.283 77.912 124.947 77.2775 127.41 76.1359C129.874 74.9942 132.022 73.4651 133.855 71.5486C135.688 69.6322 137.12 67.4181 138.152 64.9065C139.183 62.3375 139.698 59.6195 139.698 56.7523C139.698 54.4012 139.383 52.2934 138.753 50.4291C138.123 48.5074 137.12 46.803 135.745 45.3158C134.428 43.8261 132.738 42.5249 130.676 41.4124C128.613 40.2998 126.15 39.3197 123.285 38.4722C121.223 37.8757 119.505 37.2927 118.13 36.723C116.755 36.1533 115.666 35.5709 114.864 34.9758C114.062 34.3806 113.489 33.718 113.146 32.9878C112.859 32.1977 112.716 31.3152 112.716 30.3404C112.716 28.448 113.317 26.873 114.521 25.6153C115.724 24.3576 117.299 23.6855 119.247 23.5989C121.252 23.5098 122.827 24.0132 123.973 25.1092C125.119 26.2051 125.777 27.8388 125.949 30.0103L138.152 29.4679C137.98 26.7804 137.407 24.3401 136.433 22.147C135.459 19.9538 134.141 18.1201 132.48 16.6456C130.876 15.1113 128.957 13.9637 126.723 13.2028C124.489 12.4419 122.025 12.1213 119.333 12.241C116.755 12.3556 114.349 12.9499 112.114 14.0241C109.88 15.0409 107.904 16.3903 106.185 18.0723C104.524 19.7518 103.206 21.7314 102.232 24.0111C101.316 26.2309 100.857 28.6023 100.857 31.1255C100.857 33.1325 101.144 35.0121 101.717 36.7643C102.29 38.4592 103.12 40.0279 104.209 41.4705C105.355 42.8531 106.758 44.081 108.419 45.154C110.081 46.2271 111.971 47.1179 114.091 47.8265C115.523 48.2789 117.041 48.7562 118.645 49.2584C120.249 49.7032 121.739 50.2965 123.114 51.0382C124.546 51.7773 125.72 52.7573 126.637 53.9781C127.553 55.1416 128.012 56.6696 128.012 58.5619C128.012 59.7088 127.783 60.7798 127.324 61.775C126.923 62.7104 126.35 63.5386 125.606 64.2599C124.861 64.9811 123.944 65.5666 122.856 66.0164C121.825 66.4063 120.679 66.6292 119.419 66.6852C116.783 66.8024 114.75 66.262 113.317 65.0641C111.943 63.8063 111.112 61.8361 110.825 59.1537ZM148.671 38.3762L148.671 75.621L160.1 75.1131L160.1 37.8682L166.974 37.5627L166.974 27.1548L160.1 27.4603L160.1 11.5474L148.671 12.0553L148.671 27.9682L143.085 28.2165L143.085 38.6244L148.671 38.3762ZM172.623 26.9037L172.623 74.5565L184.052 74.0486L184.051 47.5557C184.051 43.771 184.882 40.9242 186.544 39.0154C188.262 37.0466 190.84 35.9859 194.277 35.8331L194.277 24.8231C192.788 24.8893 191.527 25.0313 190.496 25.2492C189.465 25.467 188.52 25.8244 187.661 26.3214C186.801 26.761 186.028 27.3688 185.34 28.1448C184.653 28.9208 183.908 29.9001 183.106 31.0826L183.106 26.4378L172.623 26.9037ZM247.218 57.1346L234.758 57.6884C233.268 59.4749 231.721 60.7765 230.117 61.5933C228.57 62.3501 226.623 62.7808 224.274 62.8852C222.613 62.959 221.037 62.8283 219.548 62.4931C218.116 62.098 216.827 61.5245 215.681 60.7726C214.535 60.0207 213.561 59.0892 212.759 57.9779C212.014 56.8068 211.47 55.5121 211.126 54.0938L247.991 52.4553C248.163 51.6449 248.277 50.9517 248.335 50.3757C248.392 49.7424 248.421 48.9669 248.421 48.0494C248.421 44.3794 247.79 40.9955 246.53 37.8976C245.327 34.7971 243.637 32.1771 241.46 30.0374C239.283 27.8404 236.677 26.1786 233.64 25.052C230.661 23.8655 227.396 23.3511 223.844 23.509C220.35 23.6643 217.056 24.4702 213.962 25.9266C210.926 27.3231 208.262 29.2191 205.971 31.6147C203.736 33.9504 201.961 36.6959 200.643 39.851C199.383 42.9462 198.752 46.2428 198.752 49.7408C198.752 53.2388 199.411 56.4781 200.729 59.4588C202.046 62.3821 203.851 64.9111 206.142 67.0456C208.491 69.1776 211.241 70.8044 214.392 71.926C217.543 73.0475 220.923 73.528 224.532 73.3676C227.167 73.2505 229.688 72.7658 232.094 71.9133C234.5 71.0609 236.705 69.9307 238.71 68.5227C240.715 67.0573 242.434 65.3753 243.866 63.4767C245.356 61.5181 246.473 59.4041 247.218 57.1346ZM237.164 42.8727L210.783 44.0452C211.241 42.4765 211.871 41.1009 212.673 39.9184C213.475 38.6786 214.421 37.633 215.509 36.7818C216.655 35.9281 217.915 35.27 219.29 34.8075C220.722 34.3424 222.298 34.0717 224.016 33.9953C227.568 33.8374 230.461 34.5117 232.695 36.018C234.929 37.5243 236.419 39.8092 237.164 42.8727ZM255.019 37.1762C253.816 40.2689 253.215 43.6503 253.215 47.3203C253.215 50.9329 253.816 54.2322 255.019 57.2179C256.222 60.1463 257.884 62.6816 260.003 64.8238C262.123 66.9087 264.643 68.517 267.565 69.6487C270.487 70.7231 273.695 71.1826 277.189 71.0273C280.569 70.8771 283.462 70.2037 285.868 69.0073C288.332 67.7509 290.709 65.7529 293.001 63.0132L293.001 69.2064L303.484 68.7404L303.484 21.0876L293.001 21.5536L293.001 27.9188C290.996 25.37 288.761 23.577 286.298 22.5396C283.892 21.4423 280.942 20.9713 277.447 21.1266C273.953 21.282 270.716 22.0566 267.737 23.4506C264.758 24.8445 262.18 26.7081 260.003 29.0412C257.884 31.3145 256.222 34.0262 255.019 37.1762ZM265.761 52.6978C265.073 51.008 264.729 49.1309 264.729 47.0666C264.729 44.8875 265.073 42.8938 265.761 41.0856C266.448 39.2201 267.393 37.6011 268.596 36.2287C269.857 34.8538 271.317 33.7567 272.979 32.9374C274.64 32.1181 276.473 31.6639 278.478 31.5747C280.541 31.4831 282.431 31.7718 284.15 32.4409C285.926 33.0501 287.444 33.9861 288.704 35.249C289.964 36.4546 290.938 37.9596 291.626 39.764C292.313 41.5111 292.657 43.4456 292.657 45.5673C292.657 47.689 292.313 49.654 291.626 51.4622C290.996 53.2105 290.05 54.7435 288.79 56.0611C287.587 57.3761 286.126 58.4159 284.408 59.1804C282.746 59.9423 280.884 60.3691 278.822 60.4608C276.76 60.5525 274.841 60.2937 273.065 59.6845C271.346 59.0728 269.857 58.1928 268.596 57.0446C267.393 55.8365 266.448 54.3875 265.761 52.6978ZM312.764 20.6752L312.764 68.328L324.193 67.82L324.193 44.3377C324.193 39.0621 324.909 35.2456 326.341 32.8881C327.773 30.5307 330.18 29.2769 333.559 29.1267C336.768 28.9841 339.088 29.8558 340.52 31.7419C342.009 33.568 342.754 36.6028 342.754 40.8463L342.754 66.9951L354.183 66.4872L354.183 43.0048C354.183 37.9012 354.956 34.1395 356.503 31.7196C358.05 29.2425 360.484 27.93 363.807 27.7824C366.843 27.6474 369.078 28.5516 370.51 30.495C371.999 32.3785 372.744 35.3846 372.744 39.5134L372.744 65.6622L384.173 65.1543L384.173 37.6292C384.173 30.5759 382.54 25.3441 379.275 21.934C376.067 18.5212 371.255 16.9574 364.838 17.2426C361.458 17.3928 358.565 18.1235 356.159 19.4347C353.753 20.6885 351.576 22.6489 349.629 25.3159C347.967 22.752 346.048 20.9449 343.871 19.8948C341.694 18.8447 338.944 18.3934 335.622 18.5411C332.815 18.6659 330.466 19.2003 328.575 20.1445C326.685 21.0887 324.909 22.6012 323.248 24.6821L323.248 20.2093L312.764 20.6752ZM395.303 27.4147L395.303 64.6596L406.732 64.1517L406.732 26.9068L413.606 26.6013L413.606 16.1933L406.732 16.4989L406.732 0.585926L395.303 1.09387L395.303 17.0068L389.717 17.2551L389.717 27.663L395.303 27.4147ZM465.486 47.4338L453.026 47.9875C451.536 49.7741 449.99 51.0757 448.385 51.8925C446.839 52.6493 444.891 53.08 442.542 53.1844C440.881 53.2582 439.305 53.1275 437.816 52.7923C436.384 52.3972 435.095 51.8237 433.949 51.0718C432.803 50.3199 431.829 49.3884 431.027 48.2771C430.283 47.106 429.738 45.8113 429.395 44.393L466.259 42.7545C466.431 41.9441 466.546 41.2509 466.603 40.6749C466.66 40.0416 466.689 39.2661 466.689 38.3486C466.689 34.6786 466.059 31.2947 464.798 28.1968C463.595 25.0963 461.905 22.4763 459.728 20.3366C457.551 18.1396 454.945 16.4778 451.909 15.3512C448.93 14.1646 445.664 13.6503 442.113 13.8082C438.618 13.9635 435.324 14.7693 432.23 16.2257C429.194 17.6223 426.53 19.5183 424.239 21.9139C422.005 24.2496 420.229 26.995 418.911 30.1502C417.651 33.2454 417.021 36.542 417.021 40.04C417.021 43.538 417.679 46.7773 418.997 49.758C420.315 52.6813 422.119 55.2102 424.411 57.3448C426.76 59.4768 429.509 61.1036 432.66 62.2251C435.811 63.3467 439.191 63.8272 442.8 63.6668C445.435 63.5497 447.956 63.0649 450.362 62.2125C452.768 61.3601 454.974 60.2299 456.979 58.8219C458.984 57.3565 460.702 55.6745 462.134 53.7759C463.624 51.8173 464.741 49.7033 465.486 47.4338ZM455.432 33.1719L429.051 34.3444C429.509 32.7757 430.139 31.4001 430.941 30.2176C431.744 28.9777 432.689 27.9322 433.777 27.081C434.923 26.2273 436.183 25.5692 437.558 25.1066C438.99 24.6416 440.566 24.3709 442.284 24.2945C445.836 24.1366 448.729 24.8109 450.963 26.3172C453.198 27.8235 454.687 30.1084 455.432 33.1719ZM520.549 43.4382L507.66 44.0111C506.228 46.2538 504.652 47.9295 502.934 49.038C501.272 50.0867 499.239 50.6645 496.832 50.7715C494.827 50.8606 492.966 50.5706 491.247 49.9015C489.586 49.2299 488.125 48.2913 486.864 47.0857C485.661 45.8203 484.716 44.314 484.029 42.5669C483.341 40.8198 482.998 38.914 482.998 36.8497C482.998 34.7279 483.313 32.7929 483.943 31.0446C484.63 29.2364 485.576 27.6747 486.779 26.3597C487.982 25.0447 489.414 24.0062 491.075 23.2442C492.736 22.4249 494.57 21.9707 496.575 21.8816C499.21 21.7645 501.415 22.2112 503.191 23.2218C505.025 24.1725 506.514 25.7406 507.66 27.9261L520.549 27.3532C518.659 22.0469 515.623 17.9958 511.441 15.1997C507.259 12.4037 502.303 11.133 496.575 11.3876C493.023 11.5455 489.729 12.3514 486.693 13.8052C483.656 15.2017 480.992 17.0691 478.701 19.4074C476.467 21.7431 474.691 24.4598 473.373 27.5576C472.113 30.6528 471.483 33.9495 471.483 37.4474C471.483 40.8881 472.142 44.0987 473.459 47.0794C474.777 50.0601 476.581 52.6463 478.873 54.8383C481.222 56.9703 483.914 58.6283 486.95 59.8122C490.044 60.9363 493.367 61.4194 496.918 61.2616C502.533 61.0121 507.373 59.3633 511.441 56.3153C515.508 53.21 518.544 48.9176 520.549 43.4382ZM77.2511 50.8533C77.2511 72.1961 59.9669 90.2656 38.6451 91.2133C17.3233 92.1609 0.0390641 75.6278 0.0390637 54.285C0.0390632 32.9421 17.3233 14.8726 38.6451 13.925C59.9669 12.9774 77.2511 29.5105 77.2511 50.8533ZM53.5942 59.1908C50.8945 64.847 45.2162 68.9155 38.6451 69.2076L38.6478 69.2074C36.9963 69.2808 35.4011 69.1102 33.8944 68.729C34.2 70.0465 34.763 71.3043 35.57 72.4197C35.9293 72.9136 36.3314 73.3761 36.7711 73.7967L37.2322 74.2377C39.377 76.292 42.0258 77.7549 44.9347 78.4925C45.1384 78.5424 45.3556 78.5382 45.562 78.4753C57.1679 74.9002 65.7256 63.9437 65.7256 51.3655C65.7256 50.2679 65.5889 48.4196 65.5326 48.1296C64.6344 50.4855 63.235 52.6758 61.3905 54.5317C59.1948 56.7413 56.5004 58.3343 53.5942 59.1908ZM49.0741 27.0862C45.8649 25.8844 42.3422 25.3002 38.6451 25.4646C32.8622 25.7216 27.503 27.7766 23.1035 31.0636C25.2402 30.7567 29.6263 30.865 32.6451 32.1531C34.7362 33.0478 36.5888 34.3475 38.1089 35.9652C38.2858 35.952 38.4655 35.9413 38.6451 35.9334C47.0714 35.5589 54.0312 41.5238 55.1197 49.6122C55.361 49.4109 55.5942 49.1993 55.8167 48.9747C58.0848 46.6948 59.0929 43.4646 58.4923 40.4024L58.184 38.8274L57.8945 37.9788C56.7149 34.5184 54.7175 31.4271 52.0687 28.9578C51.2028 28.1483 50.192 27.5035 49.0741 27.0862ZM11.6799 51.2664C11.6879 51.2017 11.704 51.1392 11.7281 51.0791C13.1973 47.611 15.4547 44.5077 18.3099 42.0219L19.0043 41.4194L20.3743 40.5025C22.9587 38.7747 26.1678 38.3986 28.9534 39.4825C24.7576 42.6907 22.023 47.7421 22.023 53.3106C22.023 57.3226 23.4413 60.9415 25.8059 63.7105C25.0472 68.5184 26.1491 73.418 28.9855 77.3389C29.3153 77.7992 29.6692 78.2397 30.0418 78.6633C19.3045 75.5417 11.5673 65.7335 11.5673 53.7753C11.5673 52.9299 11.6048 52.0937 11.6799 51.2664ZM38.0445 58.4703C41.7738 58.6749 44.8837 55.4236 44.5137 51.7072C44.2403 48.9579 42.0097 46.8216 39.2483 46.6706C35.5191 46.466 32.4091 49.7172 32.7791 53.4337C33.0526 56.1829 35.2831 58.3193 38.0445 58.4703Z" fill="url(#paint0_linear_1472_131520)"/>
<defs>
<linearGradient id="paint0_linear_1472_131520" x1="61.1336" y1="67.15" x2="520.635" y2="123.043" gradientUnits="userSpaceOnUse">
<stop stop-color="white"/>
<stop offset="1" stop-color="#C3CEF1"/>
</linearGradient>
</defs>
</svg>
