<svg width="41" height="41" viewBox="0 0 41 41" fill="none" xmlns="http://www.w3.org/2000/svg">
<g clip-path="url(#clip0_1472_90250)">
<path fill-rule="evenodd" clip-rule="evenodd" d="M20.1308 0.851562C24.083 0.851562 27.9464 2.02351 31.2324 4.2192C34.5185 6.41489 37.0797 9.53572 38.5921 13.187C40.1046 16.8383 40.5003 20.8561 39.7292 24.7323C38.9582 28.6085 37.0551 32.169 34.2605 34.9636C31.4659 37.7582 27.9054 39.6614 24.0292 40.4324C20.153 41.2034 16.1352 40.8077 12.4839 39.2953C8.83259 37.7828 5.71177 35.2216 3.51608 31.9356C1.32038 28.6495 0.148438 24.7861 0.148438 20.8339C0.148438 15.5343 2.25372 10.4517 6.00114 6.70427C9.74857 2.95684 14.8312 0.851563 20.1308 0.851562ZM10.1429 13.2105L20.313 21.4942L30.0407 13.2105H10.1429ZM9.49241 27.1597L16.7354 19.894L9.48591 13.9878V27.1532L9.49241 27.1597ZM17.5257 20.5445L10.0616 28.0249H30.1383L23.0026 20.5445L20.6382 22.5479C20.5467 22.6235 20.4317 22.6649 20.313 22.6649C20.1942 22.6649 20.0792 22.6235 19.9877 22.5479L17.5192 20.5347L17.5257 20.5445ZM23.7832 19.894L30.7757 27.2248V13.9227L23.7832 19.881V19.894Z" fill="black"/>
</g>
<defs>
<clipPath id="clip0_1472_90250">
<rect x="0.148438" y="0.851562" width="39.9648" height="39.9648" rx="19.9824" fill="white"/>
</clipPath>
</defs>
</svg>
