<svg width="30" height="30" viewBox="0 0 30 30" fill="none" xmlns="http://www.w3.org/2000/svg">
<path fill-rule="evenodd" clip-rule="evenodd" d="M15 0.00195312C17.9667 0.00195312 20.8668 0.881688 23.3335 2.52991C25.8003 4.17813 27.7229 6.52081 28.8582 9.2617C29.9935 12.0026 30.2906 15.0186 29.7118 17.9283C29.133 20.838 27.7044 23.5108 25.6066 25.6085C23.5088 27.7063 20.8361 29.1349 17.9263 29.7137C15.0166 30.2925 12.0006 29.9955 9.25975 28.8601C6.51886 27.7248 4.17618 25.8022 2.52796 23.3355C0.879735 20.8688 0 17.9687 0 15.0019C0 11.0237 1.58035 7.2084 4.3934 4.39535C7.20644 1.58231 11.0217 0.00195313 15 0.00195312ZM7.50244 9.27929L15.1367 15.4976L22.439 9.27929H7.50244ZM7.01416 19.7505L12.4512 14.2964L7.00928 9.86279V19.7456L7.01416 19.7505ZM13.0444 14.7847L7.4414 20.3999H22.5122L17.1558 14.7847L15.3809 16.2886C15.3122 16.3453 15.2258 16.3764 15.1367 16.3764C15.0476 16.3764 14.9613 16.3453 14.8926 16.2886L13.0395 14.7773L13.0444 14.7847ZM17.7417 14.2964L22.9907 19.7993V9.81396L17.7417 14.2866V14.2964Z" fill="black"/>
</svg>
