<svg width="30" height="30" viewBox="0 0 30 30" fill="none" xmlns="http://www.w3.org/2000/svg">
<g clip-path="url(#clip0_259_37)">
<circle cx="15" cy="15.002" r="15" fill="black"/>
<path d="M15 7.00195C16.4587 7.00195 17.8576 7.58142 18.8891 8.61287C19.9205 9.64432 20.5 11.0433 20.5 12.502C20.5 13.9606 19.9205 15.3596 18.8891 16.391C17.8576 17.4225 16.4587 18.002 15 18.002C13.5413 18.002 12.1424 17.4225 11.1109 16.391C10.0795 15.3596 9.5 13.9606 9.5 12.502C9.5 11.0433 10.0795 9.64432 11.1109 8.61287C12.1424 7.58142 13.5413 7.00195 15 7.00195ZM15 29.002C15 29.002 26 29.002 26 26.252C26 22.952 20.6375 19.377 15 19.377C9.3625 19.377 4 22.952 4 26.252C4 29.002 15 29.002 15 29.002Z" fill="white"/>
</g>
<rect x="0.5" y="0.501953" width="29" height="29" rx="14.5" stroke="black"/>
<defs>
<clipPath id="clip0_259_37">
<rect y="0.00195312" width="30" height="30" rx="15" fill="white"/>
</clipPath>
</defs>
</svg>
