<svg width="30" height="30" viewBox="0 0 30 30" fill="none" xmlns="http://www.w3.org/2000/svg">
<g clip-path="url(#clip0_259_41)">
<path fill-rule="evenodd" clip-rule="evenodd" d="M15 0.00195312C23.2837 0.00195312 30 6.71826 30 15.002C30 23.2856 23.2837 30.002 15 30.002C6.71631 30.002 0 23.2856 0 15.002C0 6.71826 6.71631 0.00195312 15 0.00195312ZM12.832 20.5098C12.3877 20.6587 11.9336 20.7954 11.4893 20.9419C11.0449 21.0908 10.6006 21.2373 10.1465 21.3862C9.08691 21.728 8.5083 21.9209 8.38135 21.9551C8.25684 21.9893 8.33496 21.501 8.59863 20.4756L9.44092 17.2554L15.791 10.6538L19.1724 13.9082L12.832 20.5098ZM19.1602 8.26367C19.0015 8.11475 18.8184 8.03662 18.6133 8.04639C18.4082 8.04639 18.2251 8.12695 18.0786 8.28564L16.8726 9.53809L20.2539 12.8047L21.4722 11.5303C21.6211 11.3813 21.6772 11.1885 21.6772 10.9834C21.6772 10.7783 21.5967 10.5854 21.4502 10.4487L19.1602 8.26367Z" fill="black"/>
</g>
<defs>
<clipPath id="clip0_259_41">
<rect width="30" height="30" fill="white" transform="translate(0 0.00195312)"/>
</clipPath>
</defs>
</svg>
